<?xml version="1.0" standalone="no"?>
<!DOCTYPE svg PUBLIC "-//W3C//DTD SVG 20010904//EN"
 "http://www.w3.org/TR/2001/REC-SVG-20010904/DTD/svg10.dtd">
<svg version="1.0" xmlns="http://www.w3.org/2000/svg"
 width="359.000000pt" height="359.000000pt" viewBox="0 0 359.000000 359.000000"
 preserveAspectRatio="xMidYMid meet">
<metadata>
Created by potrace 1.11, written by Peter Selinger 2001-2013
</metadata>
<g transform="translate(0.000000,359.000000) scale(0.100000,-0.100000)"
fill="#000000" stroke="none">
<path d="M0 1795 l0 -1795 1795 0 1795 0 0 1795 0 1795 -1795 0 -1795 0 0
-1795z m2029 1384 c84 -37 123 -81 334 -386 113 -164 207 -302 207 -307 1 -5
-111 -54 -247 -110 -534 -219 -1019 -451 -1322 -633 -303 -182 -543 -387 -618
-528 -137 -259 22 -452 515 -627 67 -23 118 -44 113 -46 -16 -5 -238 54 -350
93 -190 66 -340 155 -400 237 -42 56 -65 137 -56 194 17 115 135 271 310 410
82 65 85 70 606 821 288 415 540 774 560 797 90 102 228 136 348 85z m986
-637 c-6 -5 -44 -33 -85 -62 -93 -66 -220 -170 -220 -180 0 -4 160 -239 357
-521 196 -283 369 -539 385 -570 55 -108 45 -204 -28 -268 -66 -58 -91 -61
-596 -61 -271 0 -458 -4 -458 -9 0 -13 110 -111 195 -175 158 -119 411 -253
660 -350 165 -65 168 -66 115 -59 -184 24 -548 176 -771 321 -496 324 -653
706 -455 1107 83 166 261 368 476 540 114 91 496 349 425 287z m-905 -397 c0
-2 -10 -9 -22 -15 -22 -11 -22 -10 -4 4 21 17 26 19 26 11z m-64 -38 c-305
-195 -472 -318 -610 -448 -399 -378 -370 -667 87 -855 77 -31 79 -34 44 -34
-117 0 -292 69 -375 149 -79 76 -97 118 -97 231 0 89 2 100 38 175 88 184 270
366 581 580 101 70 336 215 346 214 3 0 -3 -6 -14 -12z"/>
</g>
</svg>
